<?xml version="1.0" encoding="utf-8"?>
<!-- Generator: Adobe Illustrator 24.0.0, SVG Export Plug-In . SVG Version: 6.00 Build 0)  -->
<svg version="1.1" id="Capa_1" xmlns="http://www.w3.org/2000/svg" xmlns:xlink="http://www.w3.org/1999/xlink" x="0px" y="0px"
	 viewBox="0 0 512 250" style="enable-background:new 0 0 512 250;" xml:space="preserve">
<style type="text/css">
	.st0{fill:#AEC622;}
	.st1{fill:none;stroke:#AEC622;stroke-width:0.7501;stroke-miterlimit:10;}
	.st2{fill:none;stroke:#AEC622;stroke-width:1.0002;stroke-miterlimit:10;}
	.st3{fill:none;stroke:#AEC622;stroke-width:0.7645;stroke-miterlimit:10;}
	.st4{fill:none;stroke:#AEC622;stroke-width:1.0193;stroke-miterlimit:10;}
	.st5{fill:#E44F50;}
	.st6{fill:#FFFFFF;}
</style>
<g>
	<g>
		<g id="ve_prsiana">
			<polygon class="st0" points="91.91,208.11 95.21,199.51 119.71,198.11 116.61,206.91 			"/>
			<polygon class="st0" points="86.11,195.91 90.81,187.21 126.31,184.51 121.51,193.61 			"/>
			<polygon class="st0" points="79.61,184.51 85.81,175.71 132.52,171.21 126.01,180.71 			"/>
			<polygon class="st0" points="73.61,173.41 81.31,164.31 138.92,157.7 130.62,167.61 			"/>
			<polygon class="st0" points="67.61,162.41 76.71,153.1 145.02,144 135.02,154.3 			"/>
			<polygon class="st0" points="61.7,150.8 72.01,141.1 151.42,129.1 139.52,139.9 			"/>
			<polygon class="st0" points="55.4,139.2 67.21,129.2 158.62,113.5 144.72,125 			"/>
			<polygon class="st0" points="49.5,128 62.5,117.6 165.62,97.8 149.62,110.1 			"/>
			<polygon class="st0" points="43.7,117 58,106.1 172.62,81.89 154.52,95 			"/>
			<polygon class="st0" points="37.6,105.4 53.2,93.99 180.42,64.49 159.92,78.69 			"/>
			<polygon class="st0" points="32,94.6 48.8,82.59 188.12,47.49 165.32,62.69 			"/>
			<line class="st1" x1="157.22" y1="58.49" x2="158.62" y2="196.51"/>
			<polygon class="st2" points="190.72,211.51 29.6,215.91 29.6,77.39 190.72,33.99 			"/>
			<polygon class="st0" points="158.62,195.31 157.32,197.71 157.32,200.31 159.82,200.21 159.72,197.61 			"/>
		</g>
	</g>
	<g>
		<g>
			<path class="st0" d="M206.63,83.07h6.12l13.56,39.35l13.56-39.35h6.12l-16.72,49.23h-6.12L206.63,83.07z"/>
			<path class="st0" d="M248.83,113.75c0-5.81,1.43-10.4,4.18-13.86c2.85-3.47,6.52-5.2,11.21-5.2c4.59,0,8.36,1.73,11.21,5.2
				c2.85,3.47,4.18,8.05,4.18,13.86v1.83h-25.28c0,3.67,0.92,6.63,2.65,8.87c1.83,2.24,4.18,3.36,7.24,3.36
				c2.55,0,4.69-0.71,6.42-2.04c1.63-1.33,2.65-3.06,2.85-5.3h5.5c-0.31,3.77-1.83,6.73-4.59,8.87c-2.65,2.24-6.01,3.26-10.19,3.26
				c-4.59,0-8.36-1.73-11.21-5.2C250.15,124.15,248.83,119.56,248.83,113.75z M254.33,110.69h19.67c-0.31-3.36-1.33-6.01-3.06-8.05
				c-1.73-2.04-3.98-2.96-6.73-2.96s-4.89,1.02-6.73,2.96C255.66,104.68,254.54,107.33,254.33,110.69z"/>
			<path class="st0" d="M285.52,132.2V96.52h5.5v3.77c1.02-1.63,2.45-2.96,4.28-3.77c1.73-0.71,3.77-1.12,5.91-1.12
				c3.87,0,7.03,1.43,9.79,4.18c2.65,2.75,4.08,6.01,4.08,9.99v22.73h-5.5v-22.83c0-2.45-0.92-4.59-2.65-6.32
				c-1.73-1.73-3.98-2.55-6.52-2.55s-4.69,0.82-6.52,2.55c-1.83,1.73-2.75,3.87-2.75,6.32v22.73H285.52L285.52,132.2z"/>
			<path class="st0" d="M323.95,96.01v-10.6h5.5v10.5h5.61v4.89h-5.61v23.34c0,0.61,0.2,1.22,0.71,1.73
				c0.51,0.51,1.02,0.71,1.73,0.71h3.16v5.5h-4.89c-1.63,0-3.16-0.61-4.38-1.83c-1.22-1.22-1.83-2.75-1.83-4.38v-24.97h-4.89v-4.89
				C319.06,96.01,323.95,96.01,323.95,96.01z"/>
			<path class="st0" d="M338.02,122.31c0-3.16,1.43-5.71,4.28-7.75c2.55-1.83,5.81-2.96,9.58-3.26c2.65-0.2,4.59-0.61,6.01-1.22
				c1.94-0.71,2.85-2.04,2.85-3.77c0-1.83-0.71-3.47-2.14-4.79c-1.43-1.33-3.16-1.94-5.2-1.94c-2.14,0-3.98,0.61-5.5,1.83
				c-1.63,1.33-2.45,2.96-2.45,4.89v1.22h-5.61v-2.45c0-3.16,1.43-5.71,4.18-7.64c2.55-1.83,5.71-2.75,9.28-2.75
				c3.47,0,6.42,0.92,8.97,2.85c2.65,2.04,3.98,4.48,3.98,7.64v18.45c0,1.02,0.41,1.83,1.12,2.55s1.53,1.02,2.55,1.02v4.89h-2.14
				c-1.43,0-2.75-0.41-3.98-1.12c-1.12-0.82-2.04-1.83-2.45-3.16c-1.12,1.63-2.75,2.96-4.79,3.77c-1.94,0.71-3.98,1.12-6.22,1.12
				c-3.67,0-6.73-0.92-8.87-2.85C339.14,128.02,338.02,125.57,338.02,122.31z M343.52,122.31c0,1.53,0.71,2.85,2.14,3.87
				c1.33,0.92,2.85,1.33,4.69,1.33c2.85,0,5.2-0.82,7.24-2.55c2.14-1.63,3.16-3.77,3.16-6.42l-0.1-4.89
				c-1.53,1.22-4.28,2.04-8.26,2.34l-1.53,0.1c-2.04,0.2-3.67,0.82-5.1,1.83C344.34,119.15,343.52,120.68,343.52,122.31z"/>
			<path class="st0" d="M375.12,132.2V96.52h5.5v3.77c1.02-1.63,2.45-2.96,4.28-3.77c1.73-0.71,3.77-1.12,5.91-1.12
				c3.87,0,7.03,1.43,9.79,4.18c2.65,2.75,4.08,6.01,4.08,9.99v22.73h-5.5v-22.83c0-2.45-0.92-4.59-2.65-6.32
				c-1.73-1.73-3.98-2.55-6.52-2.55s-4.69,0.82-6.52,2.55c-1.83,1.73-2.75,3.87-2.75,6.32v22.73H375.12L375.12,132.2z"/>
			<path class="st0" d="M409.78,122.31c0-3.16,1.43-5.71,4.28-7.75c2.55-1.83,5.81-2.96,9.58-3.26c2.65-0.2,4.59-0.61,6.01-1.22
				c1.94-0.71,2.85-2.04,2.85-3.77c0-1.83-0.71-3.47-2.14-4.79c-1.43-1.33-3.16-1.94-5.2-1.94c-2.14,0-3.98,0.61-5.5,1.83
				c-1.63,1.33-2.45,2.96-2.45,4.89v1.22h-5.61v-2.45c0-3.16,1.43-5.71,4.18-7.64c2.55-1.83,5.71-2.75,9.28-2.75
				c3.47,0,6.42,0.92,8.97,2.85c2.65,2.04,3.98,4.48,3.98,7.64v18.45c0,1.02,0.41,1.83,1.12,2.55c0.71,0.71,1.53,1.02,2.55,1.02
				v4.89h-2.14c-1.43,0-2.75-0.41-3.98-1.12c-1.12-0.82-2.04-1.83-2.45-3.16c-1.12,1.63-2.75,2.96-4.79,3.77
				c-1.94,0.71-3.98,1.12-6.22,1.12c-3.67,0-6.73-0.92-8.87-2.85C411,128.02,409.78,125.57,409.78,122.31z M415.28,122.31
				c0,1.53,0.71,2.85,2.14,3.87c1.33,0.92,2.85,1.33,4.69,1.33c2.85,0,5.2-0.82,7.24-2.55c2.14-1.63,3.16-3.77,3.16-6.42l-0.1-4.89
				c-1.53,1.22-4.28,2.04-8.26,2.34l-1.53,0.1c-2.04,0.2-3.67,0.82-5.1,1.83C416.1,119.15,415.28,120.68,415.28,122.31z"/>
			<path class="st0" d="M444.33,118.74h5.5c0,2.55,0.82,4.59,2.34,6.22c1.53,1.53,3.67,2.34,6.22,2.34c2.65,0,4.79-0.51,6.32-1.43
				c1.53-0.92,2.34-2.24,2.34-3.77c0-2.14-1.12-3.87-3.26-5.1c-1.83-1.02-4.18-1.63-7.14-1.94c-3.06-0.31-5.71-1.43-7.75-3.36
				c-2.24-2.04-3.36-4.48-3.36-7.34c0-3.06,1.12-5.5,3.36-7.34c2.24-1.83,5.2-2.75,8.87-2.75c4.08,0,7.34,1.12,9.79,3.36
				s3.67,5.2,3.67,8.87h-5.5c0-2.24-0.71-3.98-2.14-5.3c-1.43-1.33-3.36-2.04-5.81-2.04c-2.04,0-3.67,0.41-4.89,1.33
				c-1.22,0.92-1.83,2.24-1.83,3.77c0,1.83,1.02,3.26,2.96,4.28c1.53,0.82,3.57,1.33,6.32,1.53c3.36,0.31,6.22,1.43,8.56,3.36
				c2.45,2.14,3.67,4.69,3.67,7.64c0,3.36-1.22,6.01-3.67,8.05c-2.45,2.04-5.71,2.96-9.89,2.96c-4.48,0-8.05-1.22-10.7-3.67
				C445.76,125.98,444.33,122.72,444.33,118.74z"/>
		</g>
		<g>
			<path class="st0" d="M211.22,178.07c-3.16-3.67-4.79-8.05-4.79-13.15c0-4.99,1.63-9.28,4.79-12.95c3.16-3.57,7.03-5.4,11.62-5.4
				c3.67,0,6.93,1.12,9.58,3.26c2.65,2.24,3.98,4.89,3.98,8.05h-3.26c0-2.24-1.02-4.18-2.96-5.81c-1.94-1.63-4.38-2.45-7.24-2.45
				c-3.57,0-6.73,1.43-9.28,4.38s-3.77,6.52-3.77,10.7c0,4.28,1.22,7.95,3.77,11.01c2.55,3.06,5.71,4.59,9.28,4.59
				c2.85,0,5.2-0.82,7.14-2.45c2.04-1.63,2.96-3.67,2.96-5.91h3.36c0,3.16-1.33,5.81-3.98,8.05c-2.65,2.24-5.81,3.36-9.58,3.36
				C218.35,183.57,214.48,181.74,211.22,178.07z"/>
			<path class="st0" d="M245.47,178.68c-3.06-3.26-4.48-7.64-4.48-13.15c0-5.61,1.53-10.19,4.48-13.66c2.96-3.36,6.93-5.1,11.93-5.1
				c4.89,0,8.87,1.73,11.93,5.1c2.96,3.47,4.48,7.95,4.48,13.66c0,5.5-1.53,9.89-4.48,13.15c-3.06,3.26-7.03,4.89-11.93,4.89
				C252.4,183.57,248.42,181.94,245.47,178.68z M266.87,176.64c2.34-2.75,3.57-6.52,3.57-11.21c0-4.79-1.22-8.66-3.57-11.52
				c-2.45-2.85-5.61-4.38-9.58-4.38c-3.98,0-7.14,1.43-9.58,4.38c-2.45,2.85-3.67,6.73-3.67,11.52c0,4.69,1.22,8.36,3.67,11.21
				c2.34,2.75,5.5,4.18,9.58,4.18C261.37,180.82,264.53,179.5,266.87,176.64z"/>
			<path class="st0" d="M281.04,183.57v-35.98h3.36v6.12c1.02-2.14,2.55-3.87,4.69-5.1c2.04-1.33,4.38-1.94,6.93-1.94
				c3.57,0,6.52,1.12,9.07,3.47c2.55,2.34,3.77,5.2,3.77,8.46v24.97h-3.36V158.6c0-2.45-0.92-4.59-2.75-6.32
				c-1.83-1.73-4.08-2.65-6.63-2.65c-2.85,0-5.3,0.92-7.54,2.85s-3.57,4.38-4.08,7.34v23.75L281.04,183.57L281.04,183.57z"/>
			<path class="st0" d="M336.29,178.68c-2.75-3.36-4.08-7.85-4.08-13.45c0-5.61,1.33-9.99,4.08-13.45
				c2.75-3.36,6.32-4.99,10.91-4.99c4.59,0,8.15,1.53,10.91,4.59c2.75,3.06,4.08,7.14,4.08,12.33v1.53h-26.81
				c0,4.69,1.12,8.46,3.26,11.21c2.14,2.85,4.99,4.18,8.56,4.18c2.65,0,5.1-0.71,7.24-2.14c2.24-1.53,3.77-3.47,4.59-5.91h3.16
				c-0.51,3.16-2.24,5.81-5.1,7.95c-2.85,2.14-6.12,3.16-9.89,3.16C342.71,183.67,339.04,181.94,336.29,178.68z M359.02,162.17
				v-1.22c-0.31-3.16-1.53-5.91-3.77-8.05c-2.34-2.14-4.99-3.26-8.05-3.26c-3.06,0-5.71,1.12-7.95,3.36
				c-2.34,2.24-3.57,4.99-3.87,8.36v0.92L359.02,162.17L359.02,162.17z"/>
			<path class="st0" d="M370.43,180.11c-2.55-2.14-3.87-4.79-3.87-7.95h2.96c0,2.34,1.02,4.38,2.96,6.01
				c1.94,1.63,4.28,2.45,7.14,2.45c3.16,0,5.71-0.71,7.75-2.24c1.94-1.53,2.85-3.47,2.85-6.01c0-1.83-1.02-3.47-3.06-4.69
				c-2.04-1.22-4.69-2.04-8.15-2.34c-3.57-0.31-6.52-1.33-8.56-3.16c-2.14-1.73-3.26-3.87-3.26-6.42c0-2.85,1.12-5.1,3.26-6.73
				c2.14-1.63,5.2-2.34,9.17-2.34c3.77,0,6.73,0.82,8.97,2.55c2.24,1.73,3.47,3.98,3.47,6.83h-3.06c-0.41-2.14-1.43-3.77-3.06-4.99
				s-3.77-1.83-6.32-1.83c-2.85,0-5.1,0.61-6.83,1.83c-1.73,1.22-2.55,2.75-2.55,4.79c0,1.83,1.02,3.47,3.06,4.79
				c2.04,1.22,4.69,2.04,8.15,2.34c3.57,0.31,6.42,1.43,8.56,3.26c2.14,1.83,3.16,4.18,3.16,6.93c0,3.16-1.22,5.61-3.77,7.44
				c-2.45,1.83-5.71,2.75-9.89,2.75C376.04,183.37,372.98,182.25,370.43,180.11z"/>
			<path class="st0" d="M402.54,181.43c-1.22-1.43-1.83-3.26-1.83-5.4v-26.81h-4.99v-2.65h4.99v-10.19h3.26v10.19h4.69v2.65h-4.69
				v26.81c0,1.43,0.41,2.65,1.02,3.57c0.61,1.02,1.43,1.53,2.45,1.53c1.02,0,1.83-0.2,2.55-0.61v2.45
				c-1.22,0.41-2.14,0.71-2.75,0.71C405.39,183.67,403.87,182.86,402.54,181.43z"/>
			<path class="st0" d="M428.53,206.91v-60.14h3.16v60.14H428.53z"/>
			<path class="st0" d="M416.51,191.62v-44.95h3.16v44.95H416.51z"/>
			<path class="st0" d="M443.82,178.68c-2.96-3.26-4.38-7.64-4.38-13.15c0-5.71,1.43-10.19,4.38-13.66c2.85-3.36,6.73-5.1,11.62-5.1
				c4.79,0,8.66,1.73,11.62,5.1c2.85,3.47,4.28,8.05,4.28,13.66c0,5.5-1.43,9.89-4.28,13.15c-2.96,3.26-6.83,4.99-11.62,4.99
				C450.55,183.67,446.68,182.04,443.82,178.68z M464.72,176.74c2.24-2.85,3.47-6.52,3.47-11.21c0-4.79-1.12-8.66-3.47-11.52
				c-2.34-2.85-5.5-4.38-9.28-4.38c-3.87,0-7.03,1.43-9.28,4.38c-2.34,2.85-3.57,6.73-3.57,11.52c0,4.69,1.12,8.36,3.57,11.21
				c2.24,2.85,5.4,4.18,9.28,4.18C459.21,180.92,462.37,179.5,464.72,176.74z"/>
		</g>
		<circle class="st3" cx="419.16" cy="196.62" r="1.94"/>
		<circle class="st4" cx="431.18" cy="211.6" r="1.94"/>
	</g>
	<g>
		<polygon class="st5" points="206.18,46.67 472.57,46.67 464.6,62.71 472.57,77.41 206.18,77.41 214.5,62.19 		"/>
		<g>
			<path class="st6" d="M230.91,67.79c-1.34-1.87-1.74-4.01-1.2-6.42c0.53-2.67,1.74-4.95,3.61-6.68c1.87-1.74,4.01-2.67,6.28-2.67
				c1.87,0,3.21,0.53,4.28,1.47c1.07,0.94,1.6,2.27,1.6,3.88h-1.07c0-1.2-0.4-2.14-1.47-3.07c-0.94-0.8-2.14-1.2-3.48-1.2
				c-2,0-3.88,0.8-5.48,2.27c-1.6,1.6-2.67,3.48-3.07,5.88c-0.4,2.14-0.13,4.01,0.94,5.61c1.07,1.6,2.54,2.54,4.28,2.54
				c1.6,0,3.07-0.53,4.28-1.47c1.2-0.94,2.14-2.27,2.54-3.74h1.2c-0.53,1.87-1.6,3.48-3.07,4.54c-1.47,1.2-3.21,1.74-5.21,1.74
				C233.85,70.59,232.25,69.66,230.91,67.79z"/>
			<path class="st6" d="M246.68,68.59c-0.8-1.2-1.07-2.81-0.67-4.68c0.4-2,1.2-3.61,2.54-4.95c1.34-1.2,2.94-1.87,4.68-1.87
				c1.74,0,3.07,0.67,3.88,1.87c0.8,1.2,1.07,2.94,0.67,4.95c-0.4,2-1.2,3.61-2.54,4.68c-1.34,1.2-2.81,1.74-4.68,1.74
				C248.82,70.46,247.49,69.79,246.68,68.59z M254.57,67.92c1.07-1.07,1.74-2.41,2.14-4.01c0.4-1.74,0.13-3.07-0.53-4.14
				c-0.67-1.07-1.74-1.6-3.07-1.6c-1.47,0-2.67,0.53-3.74,1.6c-1.07,1.07-1.74,2.41-2.14,4.14c-0.27,1.74-0.13,3.07,0.53,4.01
				c0.67,0.94,1.74,1.47,3.07,1.47C252.16,69.39,253.5,68.86,254.57,67.92z"/>
			<path class="st6" d="M259.51,70.19l2.54-12.56h1.2l-0.53,2.81c0.53-0.94,1.2-1.74,1.87-2.27c0.8-0.53,1.47-0.8,2.27-0.8h0.67
				l-0.27,1.34h-0.13H267c-0.94,0-1.87,0.4-2.81,1.2c-0.94,0.8-1.6,1.74-2,3.07l-1.47,7.35h-1.2V70.19z"/>
			<path class="st6" d="M267.93,69.79c-0.4-0.53-0.53-1.2-0.4-1.87l1.87-9.49h-1.87l0.13-0.94h1.87l0.67-3.61h1.2l-0.67,3.61h1.74
				l-0.13,0.94h-1.74l-1.87,9.49c-0.13,0.53,0,0.94,0.13,1.2c0.13,0.4,0.4,0.53,0.8,0.53c0.4,0,0.67-0.13,0.94-0.27l-0.13,0.8
				c-0.4,0.13-0.8,0.27-1.07,0.27C268.87,70.59,268.34,70.33,267.93,69.79z"/>
			<path class="st6" d="M272.61,70.19l2.54-12.56h1.2l-2.54,12.56H272.61z M276.22,52.68h1.2l-0.4,1.87h-1.2L276.22,52.68z"/>
			<path class="st6" d="M277.69,70.19l2.54-12.56h1.2l-0.4,2.14c0.53-0.8,1.2-1.34,2-1.87c0.8-0.4,1.6-0.67,2.54-0.67
				c1.2,0,2.14,0.4,2.81,1.34c0.8,0.8,1.07,1.87,0.8,2.94l-1.74,8.82h-1.2l1.74-8.82c0.13-0.8,0-1.6-0.53-2.14
				c-0.53-0.67-1.2-0.94-2.14-0.94c-1.07,0-2,0.27-2.81,0.94c-0.94,0.67-1.47,1.47-1.87,2.67l-1.6,8.29L277.69,70.19L277.69,70.19z"
				/>
			<path class="st6" d="M291.46,69.53c-0.8-0.67-1.07-1.6-0.94-2.54c0.13-0.94,0.8-1.87,1.74-2.54c0.94-0.67,2.14-1.07,3.48-1.2
				c1.34-0.13,2.41-0.27,3.21-0.53c0.8-0.27,1.34-0.67,1.34-1.07l0.27-1.07c0.13-0.67-0.13-1.2-0.8-1.6
				c-0.67-0.53-1.47-0.67-2.41-0.67c-1.07,0-1.87,0.27-2.67,0.67s-1.2,0.94-1.34,1.6l-0.13,0.67h-1.07l0.13-0.8
				c0.13-0.94,0.8-1.6,1.74-2.14c0.94-0.53,2.14-0.8,3.48-0.8c1.2,0,2.27,0.27,3.07,0.94c0.8,0.67,1.2,1.34,1.07,2l-1.6,7.62
				c-0.13,0.53-0.13,0.94,0.13,1.2c0.13,0.4,0.4,0.53,0.67,0.53c0.13,0,0.13,0,0.27,0s0.13,0,0.27-0.13l-0.13,0.53
				c-0.27,0.13-0.67,0.27-1.2,0.27c-0.4,0-0.8-0.27-1.07-0.67c-0.27-0.4-0.4-0.94-0.27-1.34c-0.4,0.67-0.94,1.2-1.87,1.6
				c-0.8,0.4-1.74,0.53-2.81,0.53C293.2,70.59,292.26,70.33,291.46,69.53z M297.47,68.72c0.94-0.67,1.6-1.6,2-2.67l0.53-2.94
				c-0.27,0.27-0.8,0.4-1.6,0.53c-0.8,0.13-1.74,0.27-2.81,0.4c-0.94,0.13-1.87,0.4-2.54,0.94c-0.67,0.53-1.2,1.2-1.34,1.87
				s0.13,1.34,0.67,1.87c0.53,0.53,1.2,0.8,2.14,0.8C295.6,69.79,296.67,69.39,297.47,68.72z"/>
			<path class="st6" d="M304.29,69.26c-0.8-0.8-1.07-1.74-0.94-2.81h1.07c-0.13,0.8,0.13,1.47,0.67,2.14
				c0.67,0.67,1.47,0.94,2.41,0.94c1.2,0,2.27-0.27,3.07-0.8c0.8-0.53,1.34-1.34,1.47-2.14c0.13-0.67-0.13-1.2-0.8-1.74
				c-0.67-0.53-1.6-0.8-2.81-0.8c-1.34-0.13-2.27-0.53-2.94-1.07c-0.67-0.67-0.94-1.47-0.8-2.41c0.13-1.07,0.8-1.87,1.74-2.41
				c0.94-0.53,2.14-0.8,3.61-0.8c1.34,0,2.41,0.27,3.21,0.94c0.67,0.67,0.94,1.47,0.8,2.41h-1.07c0-0.8-0.27-1.34-0.8-1.87
				c-0.53-0.53-1.34-0.67-2.27-0.67c-1.07,0-2,0.27-2.67,0.67c-0.67,0.4-1.2,1.07-1.34,1.74s0.13,1.2,0.8,1.74
				c0.67,0.4,1.6,0.8,2.81,0.8c1.34,0.13,2.27,0.53,2.94,1.2s0.94,1.47,0.67,2.54c-0.27,1.07-0.8,2-1.87,2.67
				c-1.07,0.67-2.41,1.07-3.88,1.07C306.16,70.46,305.09,70.06,304.29,69.26z"/>
			<path class="st6" d="M325.41,68.86c-0.94-1.07-1.2-2.27-1.07-3.61c0.13-1.07,0.8-2,1.74-2.94c1.07-0.94,2.27-1.74,3.88-2.41
				c-0.53-0.8-0.8-1.47-1.07-2.27c-0.13-0.67-0.27-1.34-0.13-2c0.13-0.94,0.67-1.74,1.47-2.27c0.8-0.53,1.74-0.8,2.94-0.8
				c0.8,0,1.47,0.27,2,0.94c0.53,0.67,0.67,1.34,0.53,2.14c-0.13,0.8-0.67,1.6-1.34,2.41c-0.8,0.8-1.74,1.47-2.94,2.14l3.61,5.88
				c0.94-1.07,1.6-2.27,1.87-3.61h1.07c-0.27,1.47-1.07,2.94-2.41,4.41l1.87,3.61h-1.2l-1.47-2.54c-0.8,0.94-1.74,1.6-2.67,2.14
				c-0.94,0.53-2,0.67-3.07,0.67C327.55,70.46,326.34,69.93,325.41,68.86z M332.09,68.72c0.8-0.53,1.6-1.2,2.27-2l-3.74-6.15
				c-1.34,0.53-2.54,1.34-3.34,2.14c-0.94,0.8-1.47,1.6-1.6,2.54c-0.27,1.07,0.13,2.14,0.8,2.94c0.8,0.94,1.74,1.34,3.07,1.34
				C330.35,69.39,331.16,69.12,332.09,68.72z M333.56,57.63c0.67-0.67,1.07-1.2,1.2-1.87c0.13-0.67,0-1.2-0.4-1.74
				c-0.4-0.53-0.8-0.8-1.34-0.8c-0.67,0-1.34,0.27-1.87,0.67s-0.94,0.94-1.07,1.74c-0.13,0.53-0.13,1.2,0.13,1.87
				c0.13,0.67,0.53,1.2,0.94,1.74C332.09,58.7,332.89,58.3,333.56,57.63z"/>
			<path class="st6" d="M349.33,70.19l3.48-17.51h7.89c1.07,0,1.87,0.53,2.54,1.47c0.67,0.94,0.8,2,0.67,3.34
				c-0.27,1.47-0.94,2.67-1.87,3.61c-0.94,0.94-2,1.34-3.21,1.34h-6.82l-1.6,7.89L349.33,70.19L349.33,70.19z M358.82,61.24
				c0.94,0,1.74-0.27,2.41-1.07c0.67-0.67,1.2-1.6,1.34-2.67c0.13-0.94,0-1.87-0.4-2.67c-0.53-0.8-1.07-1.2-1.87-1.2h-6.55
				l-1.47,7.35L358.82,61.24L358.82,61.24z"/>
			<path class="st6" d="M364.97,68.86c-0.8-1.2-0.94-2.94-0.53-4.95c0.4-2,1.2-3.61,2.54-4.95c1.2-1.2,2.81-1.87,4.41-1.87
				c1.74,0,2.94,0.53,3.74,1.74c0.8,1.07,1.07,2.67,0.67,4.54l-0.13,0.53h-10.02c-0.4,1.74-0.27,3.07,0.4,4.14
				c0.67,1.07,1.6,1.6,2.94,1.6c1.07,0,2-0.27,2.94-0.8c0.94-0.53,1.6-1.2,2.14-2.14h1.2c-0.53,1.2-1.34,2.14-2.41,2.94
				c-1.2,0.8-2.54,1.07-4.01,1.07C366.98,70.59,365.64,70.06,364.97,68.86z M374.59,62.71l0.13-0.4c0.13-1.07-0.13-2.14-0.94-2.94
				c-0.67-0.8-1.6-1.2-2.67-1.2c-1.2,0-2.27,0.4-3.34,1.2c-0.94,0.8-1.6,1.87-2,3.07v0.27H374.59z"/>
			<path class="st6" d="M377.13,70.19l2.54-12.56h1.2l-0.53,2.81c0.53-0.94,1.2-1.74,1.87-2.27c0.8-0.53,1.47-0.8,2.27-0.8h0.67
				l-0.27,1.34h-0.13h-0.13c-0.94,0-1.87,0.4-2.81,1.2c-0.94,0.8-1.6,1.74-2,3.07l-1.47,7.35h-1.2V70.19z"/>
			<path class="st6" d="M385.29,69.26c-0.8-0.8-1.07-1.74-0.94-2.81h1.07c-0.13,0.8,0.13,1.47,0.67,2.14
				c0.67,0.67,1.47,0.94,2.41,0.94c1.2,0,2.27-0.27,3.07-0.8c0.8-0.53,1.34-1.34,1.47-2.14c0.13-0.67-0.13-1.2-0.8-1.74
				c-0.67-0.53-1.6-0.8-2.81-0.8c-1.34-0.13-2.27-0.53-2.94-1.07c-0.67-0.67-0.94-1.47-0.8-2.41c0.13-1.07,0.8-1.87,1.74-2.41
				c0.94-0.53,2.14-0.8,3.61-0.8c1.34,0,2.41,0.27,3.21,0.94c0.67,0.67,0.94,1.47,0.8,2.41h-1.07c0-0.8-0.27-1.34-0.8-1.87
				c-0.53-0.4-1.34-0.67-2.27-0.67c-1.07,0-2,0.27-2.67,0.67c-0.67,0.4-1.2,1.07-1.34,1.74s0.13,1.2,0.8,1.74
				c0.67,0.4,1.6,0.8,2.81,0.8c1.34,0.13,2.27,0.53,2.94,1.2c0.67,0.67,0.94,1.47,0.67,2.54c-0.27,1.07-0.8,2-1.87,2.67
				c-1.07,0.67-2.41,1.07-3.88,1.07C387.16,70.46,386.09,70.06,385.29,69.26z"/>
			<path class="st6" d="M396.25,70.19l2.54-12.56h1.2l-2.54,12.56H396.25z M399.86,52.68h1.2l-0.4,1.87h-1.2L399.86,52.68z"/>
			<path class="st6" d="M401.73,69.53c-0.8-0.67-1.07-1.6-0.94-2.54c0.13-0.94,0.8-1.87,1.74-2.54c0.94-0.67,2.14-1.07,3.48-1.2
				c1.34-0.13,2.41-0.27,3.21-0.53c0.8-0.27,1.34-0.67,1.34-1.07l0.27-1.07c0.13-0.67-0.13-1.2-0.8-1.6
				c-0.67-0.53-1.47-0.67-2.41-0.67c-1.07,0-1.87,0.27-2.67,0.67c-0.8,0.4-1.2,0.94-1.34,1.6l-0.13,0.67h-1.07l0.13-0.8
				c0.13-0.94,0.8-1.6,1.74-2.14c0.94-0.53,2.14-0.8,3.48-0.8c1.2,0,2.27,0.27,3.07,0.94c0.8,0.67,1.2,1.34,1.07,2l-1.6,7.62
				c-0.13,0.53-0.13,0.94,0.13,1.2c0.13,0.4,0.4,0.53,0.67,0.53c0.13,0,0.13,0,0.27,0s0.13,0,0.27-0.13l-0.13,0.53
				c-0.27,0.13-0.67,0.27-1.2,0.27c-0.4,0-0.8-0.27-1.07-0.67c-0.27-0.4-0.4-0.94-0.27-1.34c-0.4,0.67-0.94,1.2-1.87,1.6
				c-0.8,0.4-1.74,0.53-2.81,0.53C403.47,70.59,402.53,70.33,401.73,69.53z M407.88,68.72c0.94-0.67,1.6-1.6,2-2.67l0.53-2.94
				c-0.27,0.27-0.8,0.4-1.6,0.53c-0.8,0.13-1.74,0.27-2.81,0.4c-0.94,0.13-1.87,0.4-2.54,0.94c-0.67,0.53-1.2,1.2-1.34,1.87
				s0.13,1.34,0.67,1.87c0.53,0.53,1.2,0.8,2.14,0.8C405.87,69.79,406.94,69.39,407.88,68.72z"/>
			<path class="st6" d="M414.02,70.19l2.54-12.56h1.2l-0.4,2.14c0.53-0.8,1.2-1.34,2-1.87c0.8-0.4,1.6-0.67,2.54-0.67
				c1.2,0,2.14,0.4,2.81,1.34c0.8,0.8,1.07,1.87,0.8,2.94l-1.74,8.82h-1.2l1.74-8.82c0.13-0.8,0-1.6-0.53-2.14
				c-0.53-0.67-1.2-0.94-2.14-0.94c-1.07,0-2,0.27-2.81,0.94c-0.8,0.67-1.47,1.47-1.87,2.67l-1.6,8.29L414.02,70.19L414.02,70.19z"
				/>
			<path class="st6" d="M427.79,69.53c-0.8-0.67-1.07-1.6-0.94-2.54c0.13-0.94,0.8-1.87,1.74-2.54c0.94-0.67,2.14-1.07,3.48-1.2
				c1.34-0.13,2.41-0.27,3.21-0.53c0.8-0.27,1.34-0.67,1.34-1.07l0.27-1.07c0.13-0.67-0.13-1.2-0.8-1.6
				c-0.67-0.53-1.47-0.67-2.41-0.67c-1.07,0-1.87,0.27-2.67,0.67c-0.8,0.4-1.2,0.94-1.34,1.6l-0.13,0.67h-1.07l0.13-0.8
				c0.13-0.94,0.8-1.6,1.74-2.14c0.94-0.53,2.14-0.8,3.48-0.8c1.2,0,2.27,0.27,3.07,0.94c0.8,0.67,1.2,1.34,1.07,2l-1.6,7.62
				c-0.13,0.53-0.13,0.94,0.13,1.2c0.13,0.4,0.4,0.53,0.67,0.53c0.13,0,0.13,0,0.27,0s0.13,0,0.27-0.13l-0.13,0.53
				c-0.27,0.13-0.67,0.27-1.2,0.27c-0.4,0-0.8-0.27-1.07-0.67c-0.27-0.4-0.4-0.94-0.27-1.34c-0.4,0.67-0.94,1.2-1.87,1.6
				c-0.8,0.4-1.74,0.53-2.81,0.53C429.53,70.59,428.59,70.33,427.79,69.53z M433.81,68.72c0.94-0.67,1.6-1.6,2-2.67l0.53-2.94
				c-0.27,0.27-0.8,0.4-1.6,0.53c-0.8,0.13-1.74,0.27-2.81,0.4c-0.94,0.13-1.87,0.4-2.54,0.94c-0.67,0.53-1.2,1.2-1.34,1.87
				s0.13,1.34,0.67,1.87c0.53,0.53,1.2,0.8,2.14,0.8C431.93,69.79,433,69.39,433.81,68.72z"/>
			<path class="st6" d="M440.62,69.26c-0.8-0.8-1.07-1.74-0.94-2.81h1.07c-0.13,0.8,0.13,1.47,0.67,2.14
				c0.67,0.67,1.47,0.94,2.41,0.94c1.2,0,2.27-0.27,3.07-0.8c0.8-0.53,1.34-1.34,1.47-2.14c0.13-0.67-0.13-1.2-0.8-1.74
				c-0.67-0.53-1.6-0.8-2.81-0.8c-1.34-0.13-2.27-0.53-2.94-1.07c-0.67-0.67-0.94-1.47-0.8-2.41c0.13-1.07,0.8-1.87,1.74-2.41
				c0.94-0.53,2.14-0.8,3.61-0.8c1.34,0,2.41,0.27,3.21,0.94c0.67,0.67,0.94,1.47,0.8,2.41h-1.07c0-0.8-0.27-1.34-0.8-1.87
				c-0.53-0.53-1.34-0.67-2.27-0.67c-1.07,0-2,0.27-2.67,0.67c-0.67,0.4-1.2,1.07-1.34,1.74s0.13,1.2,0.8,1.74
				c0.67,0.4,1.6,0.8,2.81,0.8c1.34,0.13,2.27,0.53,2.94,1.2c0.67,0.67,0.94,1.47,0.67,2.54c-0.27,1.07-0.8,2-1.87,2.67
				s-2.41,1.07-3.88,1.07C442.49,70.46,441.42,70.06,440.62,69.26z"/>
		</g>
	</g>
</g>
</svg>
