<?xml version="1.0" encoding="utf-8"?>
<!-- Generator: Adobe Illustrator 24.0.0, SVG Export Plug-In . SVG Version: 6.00 Build 0)  -->
<svg version="1.1" id="Capa_1" xmlns="http://www.w3.org/2000/svg" xmlns:xlink="http://www.w3.org/1999/xlink" x="0px" y="0px"
	 viewBox="0 0 512 250" style="enable-background:new 0 0 512 250;" xml:space="preserve">
<style type="text/css">
	.st0{fill:#AEC622;}
	.st1{fill:none;stroke:#AEC622;stroke-width:0.7501;stroke-miterlimit:10;}
	.st2{fill:none;stroke:#AEC622;stroke-width:1.0002;stroke-miterlimit:10;}
	.st3{fill:none;stroke:#AEC622;stroke-width:0.4951;stroke-miterlimit:10;}
	.st4{fill:#E44F50;}
	.st5{fill:#FFFFFF;}
</style>
<g>
	<g>
		<g id="ve_prsiana">
			<polygon class="st0" points="91.9,208.1 95.2,199.5 119.7,198.1 116.6,206.9 			"/>
			<polygon class="st0" points="86.1,195.9 90.8,187.2 126.3,184.5 121.5,193.6 			"/>
			<polygon class="st0" points="79.6,184.5 85.8,175.7 132.5,171.2 126,180.7 			"/>
			<polygon class="st0" points="73.6,173.4 81.3,164.3 138.9,157.7 130.6,167.6 			"/>
			<polygon class="st0" points="67.6,162.4 76.7,153.1 145,144 135,154.3 			"/>
			<polygon class="st0" points="61.7,150.8 72,141.1 151.4,129.1 139.5,139.9 			"/>
			<polygon class="st0" points="55.4,139.2 67.2,129.2 158.6,113.5 144.7,125 			"/>
			<polygon class="st0" points="49.5,128 62.5,117.6 165.6,97.8 149.6,110.1 			"/>
			<polygon class="st0" points="43.7,117 58,106.1 172.6,81.9 154.5,95 			"/>
			<polygon class="st0" points="37.6,105.4 53.2,94 180.4,64.5 159.9,78.7 			"/>
			<polygon class="st0" points="32,94.6 48.8,82.6 188.1,47.5 165.3,62.7 			"/>
			<line class="st1" x1="157.2" y1="58.5" x2="158.6" y2="196.5"/>
			<polygon class="st2" points="190.7,211.5 29.6,215.9 29.6,77.4 190.7,34 			"/>
			<polygon class="st0" points="158.6,195.3 157.3,197.7 157.3,200.3 159.8,200.2 159.7,197.6 			"/>
		</g>
	</g>
	<g>
		<g>
			<path class="st0" d="M206.5,169.2h3l6.6,19.1l6.6-19.1h3l-8.1,23.9h-3L206.5,169.2z"/>
			<path class="st0" d="M227,184.1c0-2.8,0.7-5.1,2-6.7c1.4-1.7,3.2-2.5,5.4-2.5c2.2,0,4.1,0.8,5.4,2.5s2,3.9,2,6.7v0.9h-12.3
				c0,1.8,0.4,3.2,1.3,4.3c0.9,1.1,2,1.6,3.5,1.6c1.2,0,2.3-0.3,3.1-1c0.8-0.6,1.3-1.5,1.4-2.6h2.7c-0.2,1.8-0.9,3.3-2.2,4.3
				c-1.3,1.1-2.9,1.6-4.9,1.6c-2.2,0-4.1-0.8-5.4-2.5C227.6,189.1,227,186.9,227,184.1z M229.7,182.6h9.6c-0.2-1.6-0.6-2.9-1.5-3.9
				c-0.8-1-1.9-1.4-3.3-1.4s-2.4,0.5-3.3,1.4C230.3,179.7,229.8,180.9,229.7,182.6z"/>
			<path class="st0" d="M244.8,193v-17.3h2.7v1.8c0.5-0.8,1.2-1.4,2.1-1.8c0.8-0.3,1.8-0.5,2.9-0.5c1.9,0,3.4,0.7,4.8,2
				c1.3,1.3,2,2.9,2,4.9v11h-2.7V182c0-1.2-0.4-2.2-1.3-3.1c-0.8-0.8-1.9-1.2-3.2-1.2c-1.2,0-2.3,0.4-3.2,1.2
				c-0.9,0.8-1.3,1.9-1.3,3.1v11L244.8,193L244.8,193z"/>
			<path class="st0" d="M263.5,175.5v-5.1h2.7v5.1h2.7v2.4h-2.7v11.3c0,0.3,0.1,0.6,0.3,0.8c0.2,0.2,0.5,0.3,0.8,0.3h1.5v2.7h-2.4
				c-0.8,0-1.5-0.3-2.1-0.9c-0.6-0.6-0.9-1.3-0.9-2.1v-12.1h-2.4v-2.4H263.5z"/>
			<path class="st0" d="M270.3,188.2c0-1.5,0.7-2.8,2.1-3.8c1.2-0.9,2.8-1.4,4.7-1.6c1.3-0.1,2.2-0.3,2.9-0.6c0.9-0.3,1.4-1,1.4-1.8
				c0-0.9-0.3-1.7-1-2.3c-0.7-0.6-1.5-0.9-2.5-0.9c-1,0-1.9,0.3-2.7,0.9c-0.8,0.6-1.2,1.4-1.2,2.4v0.6h-2.7v-1.2
				c0-1.5,0.7-2.8,2-3.7c1.2-0.9,2.8-1.3,4.5-1.3c1.7,0,3.1,0.4,4.4,1.4c1.3,1,1.9,2.2,1.9,3.7v9c0,0.5,0.2,0.9,0.5,1.2
				s0.7,0.5,1.2,0.5v2.4h-1c-0.7,0-1.3-0.2-1.9-0.5c-0.5-0.4-1-0.9-1.2-1.5c-0.5,0.8-1.3,1.4-2.3,1.8c-0.9,0.3-1.9,0.5-3,0.5
				c-1.8,0-3.3-0.4-4.3-1.4C270.9,191,270.3,189.8,270.3,188.2z M273,188.2c0,0.7,0.3,1.4,1,1.9c0.6,0.4,1.4,0.6,2.3,0.6
				c1.4,0,2.5-0.4,3.5-1.2c1-0.8,1.5-1.8,1.5-3.1l0-2.4c-0.7,0.6-2.1,1-4,1.1l-0.7,0c-1,0.1-1.8,0.4-2.5,0.9
				C273.4,186.7,273,187.4,273,188.2z"/>
			<path class="st0" d="M288.3,193v-17.3h2.7v1.8c0.5-0.8,1.2-1.4,2.1-1.8c0.8-0.3,1.8-0.5,2.9-0.5c1.9,0,3.4,0.7,4.8,2
				c1.3,1.3,2,2.9,2,4.9v11H300V182c0-1.2-0.4-2.2-1.3-3.1c-0.8-0.8-1.9-1.2-3.2-1.2s-2.3,0.4-3.2,1.2c-0.9,0.8-1.3,1.9-1.3,3.1v11
				L288.3,193L288.3,193z"/>
			<path class="st0" d="M305.2,188.2c0-1.5,0.7-2.8,2.1-3.8c1.2-0.9,2.8-1.4,4.7-1.6c1.3-0.1,2.2-0.3,2.9-0.6c0.9-0.3,1.4-1,1.4-1.8
				c0-0.9-0.3-1.7-1-2.3c-0.7-0.6-1.5-0.9-2.5-0.9c-1,0-1.9,0.3-2.7,0.9c-0.8,0.6-1.2,1.4-1.2,2.4v0.6H306v-1.2c0-1.5,0.7-2.8,2-3.7
				c1.2-0.9,2.8-1.3,4.5-1.3c1.7,0,3.1,0.4,4.4,1.4c1.3,1,1.9,2.2,1.9,3.7v9c0,0.5,0.2,0.9,0.5,1.2c0.3,0.3,0.7,0.5,1.2,0.5v2.4h-1
				c-0.7,0-1.3-0.2-1.9-0.5c-0.5-0.4-1-0.9-1.2-1.5c-0.5,0.8-1.3,1.4-2.3,1.8c-0.9,0.3-1.9,0.5-3,0.5c-1.8,0-3.3-0.4-4.3-1.4
				C305.8,191,305.2,189.8,305.2,188.2z M307.8,188.2c0,0.7,0.3,1.4,1,1.9c0.6,0.4,1.4,0.6,2.3,0.6c1.4,0,2.5-0.4,3.5-1.2
				c1-0.8,1.5-1.8,1.5-3.1l0-2.4c-0.7,0.6-2.1,1-4,1.1l-0.7,0c-1,0.1-1.8,0.4-2.5,0.9C308.2,186.7,307.8,187.4,307.8,188.2z"/>
			<path class="st0" d="M321.9,186.5h2.7c0,1.2,0.4,2.2,1.1,3c0.7,0.7,1.8,1.1,3,1.1c1.3,0,2.3-0.2,3.1-0.7c0.7-0.4,1.1-1.1,1.1-1.8
				c0-1-0.5-1.9-1.6-2.5c-0.9-0.5-2-0.8-3.5-0.9c-1.5-0.2-2.8-0.7-3.8-1.6c-1.1-1-1.6-2.2-1.6-3.6c0-1.5,0.5-2.7,1.6-3.6
				c1.1-0.9,2.5-1.3,4.3-1.3c2,0,3.6,0.5,4.8,1.6s1.8,2.5,1.8,4.3h-2.7c0-1.1-0.3-1.9-1-2.6c-0.7-0.6-1.6-1-2.8-1
				c-1,0-1.8,0.2-2.4,0.6c-0.6,0.4-0.9,1.1-0.9,1.8c0,0.9,0.5,1.6,1.4,2.1c0.7,0.4,1.7,0.6,3.1,0.7c1.6,0.2,3,0.7,4.2,1.6
				c1.2,1,1.8,2.3,1.8,3.7c0,1.6-0.6,2.9-1.8,3.9c-1.2,1-2.8,1.4-4.8,1.4c-2.2,0-3.9-0.6-5.2-1.8C322.6,190,321.9,188.4,321.9,186.5
				z"/>
		</g>
		<g>
			<path class="st0" d="M346.2,191.2c-1.5-1.8-2.3-3.9-2.3-6.4c0-2.4,0.8-4.5,2.3-6.3c1.5-1.7,3.4-2.6,5.6-2.6
				c1.8,0,3.4,0.5,4.7,1.6c1.3,1.1,1.9,2.4,1.9,3.9h-1.6c0-1.1-0.5-2-1.4-2.8c-0.9-0.8-2.1-1.2-3.5-1.2c-1.7,0-3.3,0.7-4.5,2.1
				c-1.2,1.4-1.8,3.2-1.8,5.2c0,2.1,0.6,3.9,1.8,5.3c1.2,1.5,2.8,2.2,4.5,2.2c1.4,0,2.5-0.4,3.5-1.2c1-0.8,1.4-1.8,1.4-2.9h1.6
				c0,1.5-0.6,2.8-1.9,3.9c-1.3,1.1-2.8,1.6-4.7,1.6C349.7,193.9,347.8,193,346.2,191.2z"/>
			<path class="st0" d="M362.9,191.5c-1.5-1.6-2.2-3.7-2.2-6.4c0-2.7,0.7-4.9,2.2-6.6c1.4-1.6,3.4-2.5,5.8-2.5
				c2.4,0,4.3,0.8,5.8,2.5c1.4,1.7,2.2,3.9,2.2,6.6c0,2.7-0.7,4.8-2.2,6.4c-1.5,1.6-3.4,2.4-5.8,2.4
				C366.2,193.9,364.3,193.1,362.9,191.5z M373.3,190.5c1.1-1.3,1.7-3.2,1.7-5.4c0-2.3-0.6-4.2-1.7-5.6c-1.2-1.4-2.7-2.1-4.7-2.1
				c-1.9,0-3.5,0.7-4.7,2.1c-1.2,1.4-1.8,3.3-1.8,5.6c0,2.3,0.6,4.1,1.8,5.4c1.1,1.3,2.7,2,4.7,2
				C370.6,192.5,372.1,191.9,373.3,190.5z"/>
			<path class="st0" d="M380.1,193.9v-17.5h1.6v3c0.5-1,1.2-1.9,2.3-2.5c1-0.6,2.1-0.9,3.4-0.9c1.7,0,3.2,0.5,4.4,1.7
				c1.2,1.1,1.8,2.5,1.8,4.1v12.1H392v-12.1c0-1.2-0.4-2.2-1.3-3.1c-0.9-0.8-2-1.3-3.2-1.3c-1.4,0-2.6,0.4-3.7,1.4
				c-1.1,0.9-1.7,2.1-2,3.6v11.5H380.1L380.1,193.9z"/>
			<path class="st0" d="M407,191.5c-1.3-1.6-2-3.8-2-6.5c0-2.7,0.6-4.9,2-6.5c1.3-1.6,3.1-2.4,5.3-2.4c2.2,0,4,0.7,5.3,2.2
				c1.3,1.5,2,3.5,2,6v0.7h-13c0,2.3,0.5,4.1,1.6,5.4c1,1.4,2.4,2,4.2,2c1.3,0,2.5-0.3,3.5-1c1.1-0.7,1.8-1.7,2.2-2.9h1.5
				c-0.2,1.5-1.1,2.8-2.5,3.9c-1.4,1-3,1.5-4.8,1.5C410.1,193.9,408.3,193.1,407,191.5z M418,183.5v-0.6c-0.2-1.5-0.7-2.9-1.8-3.9
				c-1.1-1-2.4-1.6-3.9-1.6c-1.5,0-2.8,0.5-3.9,1.6c-1.1,1.1-1.7,2.4-1.9,4.1v0.4L418,183.5L418,183.5z"/>
			<path class="st0" d="M423.6,192.2c-1.2-1-1.9-2.3-1.9-3.9h1.4c0,1.1,0.5,2.1,1.4,2.9s2.1,1.2,3.5,1.2c1.5,0,2.8-0.3,3.8-1.1
				c0.9-0.7,1.4-1.7,1.4-2.9c0-0.9-0.5-1.7-1.5-2.3c-1-0.6-2.3-1-4-1.1c-1.7-0.2-3.2-0.6-4.2-1.5c-1-0.8-1.6-1.9-1.6-3.1
				c0-1.4,0.5-2.5,1.6-3.3c1-0.8,2.5-1.1,4.5-1.1c1.8,0,3.3,0.4,4.4,1.2s1.7,1.9,1.7,3.3h-1.5c-0.2-1-0.7-1.8-1.5-2.4
				c-0.8-0.6-1.8-0.9-3.1-0.9c-1.4,0-2.5,0.3-3.3,0.9c-0.8,0.6-1.2,1.3-1.2,2.3c0,0.9,0.5,1.7,1.5,2.3c1,0.6,2.3,1,4,1.1
				c1.7,0.2,3.1,0.7,4.2,1.6c1,0.9,1.5,2,1.5,3.4c0,1.5-0.6,2.7-1.8,3.6c-1.2,0.9-2.8,1.3-4.8,1.3
				C426.3,193.8,424.8,193.2,423.6,192.2z"/>
			<path class="st0" d="M439.2,192.8c-0.6-0.7-0.9-1.6-0.9-2.6v-13h-2.4v-1.3h2.4v-4.9h1.6v4.9h2.3v1.3h-2.3v13
				c0,0.7,0.2,1.3,0.5,1.7c0.3,0.5,0.7,0.7,1.2,0.7s0.9-0.1,1.2-0.3v1.2c-0.6,0.2-1,0.3-1.3,0.3
				C440.5,193.9,439.8,193.5,439.2,192.8z"/>
			<path class="st0" d="M451.8,205.2V176h1.5v29.2H451.8z"/>
			<path class="st0" d="M445.9,193.9v-18h1.5v18H445.9z"/>
			<path class="st0" d="M459.2,191.5c-1.4-1.6-2.1-3.7-2.1-6.4c0-2.8,0.7-4.9,2.1-6.6c1.4-1.6,3.3-2.5,5.6-2.5
				c2.3,0,4.2,0.8,5.6,2.5c1.4,1.7,2.1,3.9,2.1,6.6c0,2.7-0.7,4.8-2.1,6.4c-1.4,1.6-3.3,2.4-5.6,2.4
				C462.5,193.9,460.6,193.1,459.2,191.5z M469.4,190.6c1.1-1.4,1.7-3.2,1.7-5.4c0-2.3-0.5-4.2-1.7-5.6c-1.1-1.4-2.7-2.1-4.5-2.1
				c-1.9,0-3.4,0.7-4.5,2.1c-1.1,1.4-1.7,3.3-1.7,5.6c0,2.3,0.5,4.1,1.7,5.4c1.1,1.4,2.6,2,4.5,2
				C466.7,192.6,468.2,191.9,469.4,190.6z"/>
		</g>
		<circle class="st3" cx="446.6" cy="173.6" r="0.9"/>
	</g>
	<g>
		<polygon class="st4" points="206.2,50.7 472.6,50.7 464.6,111.1 472.6,166.4 206.2,166.4 214.5,109.1 		"/>
		<g>
			<g>
				<path class="st5" d="M232.3,94.3c-2.7-3.7-3.5-8-2.4-12.9c1.1-5.4,3.5-9.9,7.2-13.4c3.7-3.5,8-5.4,12.6-5.4
					c3.7,0,6.4,1.1,8.6,2.9c2.1,1.9,3.2,4.6,3.2,7.8h-2.1c0-2.4-0.8-4.3-2.9-6.2c-1.9-1.6-4.3-2.4-7-2.4c-4,0-7.8,1.6-11,4.6
					c-3.2,3.2-5.4,7-6.2,11.8c-0.8,4.3-0.3,8,1.9,11.2c2.1,3.2,5.1,5.1,8.6,5.1c3.2,0,6.2-1.1,8.6-2.9c2.4-1.9,4.3-4.6,5.1-7.5h2.4
					c-1.1,3.7-3.2,7-6.2,9.1c-2.9,2.4-6.4,3.5-10.4,3.5C238.2,99.9,235,98,232.3,94.3z"/>
				<path class="st5" d="M264,95.9c-1.6-2.4-2.1-5.6-1.3-9.4c0.8-4,2.4-7.2,5.1-9.9c2.7-2.4,5.9-3.7,9.4-3.7c3.5,0,6.2,1.3,7.8,3.7
					c1.6,2.4,2.1,5.9,1.3,9.9c-0.8,4-2.4,7.2-5.1,9.4c-2.7,2.4-5.6,3.5-9.4,3.5C268.3,99.6,265.6,98.3,264,95.9z M279.8,94.5
					c2.1-2.1,3.5-4.8,4.3-8c0.8-3.5,0.3-6.2-1.1-8.3c-1.3-2.1-3.5-3.2-6.2-3.2c-2.9,0-5.4,1.1-7.5,3.2c-2.1,2.1-3.5,4.8-4.3,8.3
					c-0.5,3.5-0.3,6.2,1.1,8c1.3,1.9,3.5,2.9,6.2,2.9C274.9,97.5,277.6,96.4,279.8,94.5z"/>
				<path class="st5" d="M289.7,99.1l5.1-25.2h2.4l-1.1,5.6c1.1-1.9,2.4-3.5,3.7-4.6c1.6-1.1,2.9-1.6,4.6-1.6h1.3l-0.5,2.7H305h-0.3
					c-1.9,0-3.7,0.8-5.6,2.4c-1.9,1.6-3.2,3.5-4,6.2l-2.9,14.7h-2.4L289.7,99.1L289.7,99.1z"/>
				<path class="st5" d="M306.6,98.3c-0.8-1.1-1.1-2.4-0.8-3.7l3.7-19h-3.7l0.3-1.9h3.7l1.3-7.2h2.4l-1.3,7.2h3.5l-0.3,1.9h-3.5
					l-3.7,19c-0.3,1.1,0,1.9,0.3,2.4c0.3,0.8,0.8,1.1,1.6,1.1s1.3-0.3,1.9-0.5l-0.3,1.6c-0.8,0.3-1.6,0.5-2.1,0.5
					C308.5,99.9,307.4,99.4,306.6,98.3z"/>
				<path class="st5" d="M315.9,99.1l5.1-25.2h2.4l-5.1,25.2H315.9z M323.2,64h2.4l-0.8,3.7h-2.4L323.2,64z"/>
				<path class="st5" d="M326.1,99.1l5.1-25.2h2.4l-0.8,4.3c1.1-1.6,2.4-2.7,4-3.7c1.6-0.8,3.2-1.3,5.1-1.3c2.4,0,4.3,0.8,5.6,2.7
					c1.6,1.6,2.1,3.7,1.6,5.9l-3.5,17.7h-2.4l3.5-17.7c0.3-1.6,0-3.2-1.1-4.3c-1.1-1.3-2.4-1.9-4.3-1.9c-2.1,0-4,0.5-5.6,1.9
					c-1.9,1.3-2.9,2.9-3.7,5.4l-3.2,16.6L326.1,99.1L326.1,99.1z"/>
				<path class="st5" d="M353.7,97.8c-1.6-1.3-2.1-3.2-1.9-5.1c0.3-1.9,1.6-3.7,3.5-5.1c1.9-1.3,4.3-2.1,7-2.4
					c2.7-0.3,4.8-0.5,6.4-1.1c1.6-0.5,2.7-1.3,2.7-2.1l0.5-2.1c0.3-1.3-0.3-2.4-1.6-3.2c-1.3-1.1-2.9-1.3-4.8-1.3
					c-2.1,0-3.7,0.5-5.4,1.3c-1.6,0.8-2.4,1.9-2.7,3.2l-0.3,1.3h-2.1l0.3-1.6c0.3-1.9,1.6-3.2,3.5-4.3c1.9-1.1,4.3-1.6,7-1.6
					c2.4,0,4.6,0.5,6.2,1.9c1.6,1.3,2.4,2.7,2.1,4l-3.2,15.3c-0.3,1.1-0.3,1.9,0.3,2.4c0.3,0.8,0.8,1.1,1.3,1.1c0.3,0,0.3,0,0.5,0
					s0.3,0,0.5-0.3l-0.3,1.1c-0.5,0.3-1.3,0.5-2.4,0.5c-0.8,0-1.6-0.5-2.1-1.3c-0.5-0.8-0.8-1.9-0.5-2.7c-0.8,1.3-1.9,2.4-3.7,3.2
					c-1.6,0.8-3.5,1.1-5.6,1.1C357.2,99.9,355.3,99.4,353.7,97.8z M365.8,96.1c1.9-1.3,3.2-3.2,4-5.4l1.1-5.9
					c-0.5,0.5-1.6,0.8-3.2,1.1c-1.6,0.3-3.5,0.5-5.6,0.8c-1.9,0.3-3.7,0.8-5.1,1.9c-1.3,1.1-2.4,2.4-2.7,3.7s0.3,2.7,1.3,3.7
					c1.1,1.1,2.4,1.6,4.3,1.6C362,98.3,364.2,97.5,365.8,96.1z"/>
				<path class="st5" d="M379.5,97.2c-1.6-1.6-2.1-3.5-1.9-5.6h2.1c-0.3,1.6,0.3,2.9,1.3,4.3c1.3,1.3,2.9,1.9,4.8,1.9
					c2.4,0,4.6-0.5,6.2-1.6c1.6-1.1,2.7-2.7,2.9-4.3c0.3-1.3-0.3-2.4-1.6-3.5c-1.3-1.1-3.2-1.6-5.6-1.6c-2.7-0.3-4.6-1.1-5.9-2.1
					c-1.3-1.3-1.9-2.9-1.6-4.8c0.3-2.1,1.6-3.7,3.5-4.8c1.9-1.1,4.3-1.6,7.2-1.6c2.7,0,4.8,0.5,6.4,1.9c1.3,1.3,1.9,2.9,1.6,4.8
					h-2.1c0-1.6-0.5-2.7-1.6-3.7c-1.1-1.1-2.7-1.3-4.6-1.3c-2.1,0-4,0.5-5.4,1.3c-1.3,0.8-2.4,2.1-2.7,3.5s0.3,2.4,1.6,3.5
					c1.3,0.8,3.2,1.6,5.6,1.6c2.7,0.3,4.6,1.1,5.9,2.4c1.3,1.3,1.9,2.9,1.3,5.1c-0.5,2.1-1.6,4-3.7,5.4c-2.1,1.3-4.8,2.1-7.8,2.1
					C383.2,99.6,381.1,98.8,379.5,97.2z"/>
				<path class="st5" d="M421.8,96.4c-1.9-2.1-2.4-4.6-2.1-7.2c0.3-2.1,1.6-4,3.5-5.9c2.1-1.9,4.6-3.5,7.8-4.8
					c-1.1-1.6-1.6-2.9-2.1-4.6c-0.3-1.3-0.5-2.7-0.3-4c0.3-1.9,1.3-3.5,2.9-4.6c1.6-1.1,3.5-1.6,5.9-1.6c1.6,0,2.9,0.5,4,1.9
					s1.3,2.7,1.1,4.3c-0.3,1.6-1.3,3.2-2.7,4.8c-1.6,1.6-3.5,2.9-5.9,4.3l7.2,11.8c1.9-2.1,3.2-4.6,3.7-7.2h2.1
					c-0.5,2.9-2.1,5.9-4.8,8.8l3.7,7.2h-2.4l-2.9-5.1c-1.6,1.9-3.5,3.2-5.4,4.3c-1.9,1.1-4,1.3-6.2,1.3
					C426.1,99.6,423.7,98.6,421.8,96.4z M435.2,96.1c1.6-1.1,3.2-2.4,4.6-4l-7.5-12.3c-2.7,1.1-5.1,2.7-6.7,4.3
					c-1.9,1.6-2.9,3.2-3.2,5.1c-0.5,2.1,0.3,4.3,1.6,5.9c1.6,1.9,3.5,2.7,6.2,2.7C431.7,97.5,433.3,96.9,435.2,96.1z M438.2,73.9
					c1.3-1.3,2.1-2.4,2.4-3.7c0.3-1.3,0-2.4-0.8-3.5c-0.8-1.1-1.6-1.6-2.7-1.6c-1.3,0-2.7,0.5-3.7,1.3c-1.1,0.8-1.9,1.9-2.1,3.5
					c-0.3,1.1-0.3,2.4,0.3,3.7c0.3,1.3,1.1,2.4,1.9,3.5C435.2,76.1,436.8,75.2,438.2,73.9z"/>
			</g>
			<g>
				<path class="st5" d="M227.8,151.5l7.5-38h17.1c2.3,0,4.1,1.1,5.5,3.2s1.7,4.3,1.5,7.2c-0.6,3.2-2,5.8-4.1,7.8
					c-2,2-4.3,2.9-7,2.9h-14.8l-3.5,17.1L227.8,151.5L227.8,151.5z M248.4,132.1c2,0,3.8-0.6,5.2-2.3c1.5-1.5,2.6-3.5,2.9-5.8
					c0.3-2,0-4.1-0.9-5.8c-1.1-1.7-2.3-2.6-4.1-2.6h-14.2l-3.2,15.9L248.4,132.1L248.4,132.1z"/>
				<path class="st5" d="M261.7,148.6c-1.7-2.6-2-6.4-1.1-10.7c0.9-4.3,2.6-7.8,5.5-10.7c2.6-2.6,6.1-4.1,9.6-4.1
					c3.8,0,6.4,1.1,8.1,3.8c1.7,2.3,2.3,5.8,1.5,9.8l-0.3,1.1h-21.7c-0.9,3.8-0.6,6.7,0.9,9c1.5,2.3,3.5,3.5,6.4,3.5
					c2.3,0,4.3-0.6,6.4-1.7c2-1.1,3.5-2.6,4.6-4.6h2.6c-1.1,2.6-2.9,4.6-5.2,6.4c-2.6,1.7-5.5,2.3-8.7,2.3
					C266.1,152.4,263.2,151.2,261.7,148.6z M282.6,135.3l0.3-0.9c0.3-2.3-0.3-4.6-2-6.4c-1.5-1.7-3.5-2.6-5.8-2.6
					c-2.6,0-4.9,0.9-7.2,2.6c-2,1.7-3.5,4.1-4.3,6.7v0.6H282.6z"/>
				<path class="st5" d="M288.1,151.5l5.5-27.2h2.6l-1.1,6.1c1.1-2,2.6-3.8,4.1-4.9c1.7-1.1,3.2-1.7,4.9-1.7h1.5l-0.6,2.9h-0.3h-0.3
					c-2,0-4.1,0.9-6.1,2.6c-2,1.7-3.5,3.8-4.3,6.7l-3.2,15.9h-2.6L288.1,151.5L288.1,151.5z"/>
				<path class="st5" d="M305.8,149.5c-1.7-1.7-2.3-3.8-2-6.1h2.3c-0.3,1.7,0.3,3.2,1.5,4.6c1.5,1.5,3.2,2,5.2,2
					c2.6,0,4.9-0.6,6.7-1.7c1.7-1.1,2.9-2.9,3.2-4.6c0.3-1.5-0.3-2.6-1.7-3.8c-1.5-1.1-3.5-1.7-6.1-1.7c-2.9-0.3-4.9-1.1-6.4-2.3
					c-1.5-1.5-2-3.2-1.7-5.2c0.3-2.3,1.7-4.1,3.8-5.2c2-1.1,4.6-1.7,7.8-1.7c2.9,0,5.2,0.6,7,2c1.5,1.5,2,3.2,1.7,5.2h-2.3
					c0-1.7-0.6-2.9-1.7-4.1c-1.1-0.9-2.9-1.5-4.9-1.5c-2.3,0-4.3,0.6-5.8,1.5c-1.5,0.9-2.6,2.3-2.9,3.8c-0.3,1.5,0.3,2.6,1.7,3.8
					c1.5,0.9,3.5,1.7,6.1,1.7c2.9,0.3,4.9,1.1,6.4,2.6c1.5,1.5,2,3.2,1.5,5.5c-0.6,2.3-1.7,4.3-4.1,5.8c-2.3,1.5-5.2,2.3-8.4,2.3
					C309.8,152.1,307.5,151.2,305.8,149.5z"/>
				<path class="st5" d="M329.5,151.5l5.5-27.2h2.6l-5.5,27.2H329.5z M337.4,113.6h2.6l-0.9,4.1h-2.6L337.4,113.6z"/>
				<path class="st5" d="M341.4,150.1c-1.7-1.5-2.3-3.5-2-5.5c0.3-2,1.7-4.1,3.8-5.5c2-1.5,4.6-2.3,7.5-2.6c2.9-0.3,5.2-0.6,7-1.1
					c1.7-0.6,2.9-1.5,2.9-2.3l0.6-2.3c0.3-1.5-0.3-2.6-1.7-3.5c-1.5-1.1-3.2-1.5-5.2-1.5c-2.3,0-4.1,0.6-5.8,1.5
					c-1.7,0.9-2.6,2-2.9,3.5l-0.3,1.5h-2.3l0.3-1.7c0.3-2,1.7-3.5,3.8-4.6c2-1.1,4.6-1.7,7.5-1.7c2.6,0,4.9,0.6,6.7,2
					c1.7,1.5,2.6,2.9,2.3,4.3l-3.5,16.5c-0.3,1.1-0.3,2,0.3,2.6c0.3,0.9,0.9,1.1,1.5,1.1c0.3,0,0.3,0,0.6,0c0.3,0,0.3,0,0.6-0.3
					l-0.3,1.1c-0.6,0.3-1.5,0.6-2.6,0.6c-0.9,0-1.7-0.6-2.3-1.5c-0.6-0.9-0.9-2-0.6-2.9c-0.9,1.5-2,2.6-4.1,3.5
					c-1.7,0.9-3.8,1.1-6.1,1.1C345.2,152.4,343.2,151.8,341.4,150.1z M354.8,148.3c2-1.5,3.5-3.5,4.3-5.8l1.1-6.4
					c-0.6,0.6-1.7,0.9-3.5,1.1c-1.7,0.3-3.8,0.6-6.1,0.9c-2,0.3-4.1,0.9-5.5,2c-1.5,1.1-2.6,2.6-2.9,4.1c-0.3,1.5,0.3,2.9,1.5,4.1
					c1.1,1.1,2.6,1.7,4.6,1.7C350.4,150.7,352.7,149.8,354.8,148.3z"/>
				<path class="st5" d="M368.1,151.5l5.5-27.2h2.6l-0.9,4.6c1.1-1.7,2.6-2.9,4.3-4.1c1.7-0.9,3.5-1.5,5.5-1.5
					c2.6,0,4.6,0.9,6.1,2.9c1.7,1.7,2.3,4.1,1.7,6.4l-3.8,19.1h-2.6l3.8-19.1c0.3-1.7,0-3.5-1.1-4.6c-1.1-1.5-2.6-2-4.6-2
					c-2.3,0-4.3,0.6-6.1,2c-1.7,1.5-3.2,3.2-4.1,5.8l-3.5,18L368.1,151.5L368.1,151.5z"/>
				<path class="st5" d="M397.9,150.1c-1.7-1.5-2.3-3.5-2-5.5c0.3-2,1.7-4.1,3.8-5.5c2-1.5,4.6-2.3,7.5-2.6c2.9-0.3,5.2-0.6,7-1.1
					c1.7-0.6,2.9-1.5,2.9-2.3l0.6-2.3c0.3-1.5-0.3-2.6-1.7-3.5c-1.5-1.1-3.2-1.5-5.2-1.5c-2.3,0-4.1,0.6-5.8,1.5
					c-1.7,0.9-2.6,2-2.9,3.5l-0.3,1.5h-2.3l0.3-1.7c0.3-2,1.7-3.5,3.8-4.6c2-1.1,4.6-1.7,7.5-1.7c2.6,0,4.9,0.6,6.7,2
					c1.7,1.5,2.6,2.9,2.3,4.3l-3.5,16.5c-0.3,1.1-0.3,2,0.3,2.6c0.3,0.9,0.9,1.1,1.5,1.1c0.3,0,0.3,0,0.6,0c0.3,0,0.3,0,0.6-0.3
					l-0.3,1.1c-0.6,0.3-1.5,0.6-2.6,0.6c-0.9,0-1.7-0.6-2.3-1.5c-0.6-0.9-0.9-2-0.6-2.9c-0.9,1.5-2,2.6-4.1,3.5
					c-1.7,0.9-3.8,1.1-6.1,1.1C401.7,152.4,399.7,151.8,397.9,150.1z M411,148.3c2-1.5,3.5-3.5,4.3-5.8l1.1-6.4
					c-0.6,0.6-1.7,0.9-3.5,1.1c-1.7,0.3-3.8,0.6-6.1,0.9c-2,0.3-4.1,0.9-5.5,2c-1.5,1.1-2.6,2.6-2.9,4.1c-0.3,1.5,0.3,2.9,1.5,4.1
					c1.1,1.1,2.6,1.7,4.6,1.7C406.9,150.7,409.2,149.8,411,148.3z"/>
				<path class="st5" d="M425.8,149.5c-1.7-1.7-2.3-3.8-2-6.1h2.3c-0.3,1.7,0.3,3.2,1.5,4.6c1.5,1.5,3.2,2,5.2,2
					c2.6,0,4.9-0.6,6.7-1.7c1.7-1.1,2.9-2.9,3.2-4.6c0.3-1.5-0.3-2.6-1.7-3.8c-1.5-1.1-3.5-1.7-6.1-1.7c-2.9-0.3-4.9-1.1-6.4-2.3
					c-1.5-1.5-2-3.2-1.7-5.2c0.3-2.3,1.7-4.1,3.8-5.2c2-1.1,4.6-1.7,7.8-1.7c2.9,0,5.2,0.6,7,2c1.5,1.5,2,3.2,1.7,5.2h-2.3
					c0-1.7-0.6-2.9-1.7-4.1c-1.1-1.1-2.9-1.5-4.9-1.5c-2.3,0-4.3,0.6-5.8,1.5c-1.5,0.9-2.6,2.3-2.9,3.8s0.3,2.6,1.7,3.8
					c1.5,0.9,3.5,1.7,6.1,1.7c2.9,0.3,4.9,1.1,6.4,2.6c1.5,1.5,2,3.2,1.5,5.5c-0.6,2.3-1.7,4.3-4.1,5.8c-2.3,1.5-5.2,2.3-8.4,2.3
					C429.8,152.1,427.5,151.2,425.8,149.5z"/>
			</g>
		</g>
	</g>
</g>
</svg>
